<mxfile host="app.diagrams.net" modified="2021-11-12T16:58:21.782Z" agent="5.0 (Macintosh; Intel Mac OS X 10_14_6) AppleWebKit/537.36 (KHTML, like Gecko) Chrome/95.0.4638.54 Safari/537.36" etag="tkcj0YaFs-4nBLxyzMal" version="15.7.3" type="github">
  <diagram id="m1Fd_5SKxQsxVfl24CQk" name="Page-1">
    <mxGraphModel dx="1554" dy="825" grid="1" gridSize="10" guides="1" tooltips="1" connect="1" arrows="1" fold="1" page="1" pageScale="1" pageWidth="850" pageHeight="1100" math="0" shadow="0">
      <root>
        <mxCell id="0" />
        <mxCell id="1" parent="0" />
      </root>
    </mxGraphModel>
  </diagram>
</mxfile>
